<svg id="visual" viewBox="0 0 900 600" width="900" height="600" xmlns="http://www.w3.org/2000/svg" xmlns:xlink="http://www.w3.org/1999/xlink" version="1.1"><path d="M0 339L21.5 342C43 345 86 351 128.8 373.3C171.7 395.7 214.3 434.3 257.2 433.8C300 433.3 343 393.7 385.8 389.2C428.7 384.7 471.3 415.3 514.2 418.7C557 422 600 398 642.8 374.2C685.7 350.3 728.3 326.7 771.2 320C814 313.3 857 323.7 878.5 328.8L900 334L900 601L878.5 601C857 601 814 601 771.2 601C728.3 601 685.7 601 642.8 601C600 601 557 601 514.2 601C471.3 601 428.7 601 385.8 601C343 601 300 601 257.2 601C214.3 601 171.7 601 128.8 601C86 601 43 601 21.5 601L0 601Z" fill="#253166"></path><path d="M0 445L21.5 433.8C43 422.7 86 400.3 128.8 401.2C171.7 402 214.3 426 257.2 436.8C300 447.7 343 445.3 385.8 439.8C428.7 434.3 471.3 425.7 514.2 422.3C557 419 600 421 642.8 428.2C685.7 435.3 728.3 447.7 771.2 440.2C814 432.7 857 405.3 878.5 391.7L900 378L900 601L878.5 601C857 601 814 601 771.2 601C728.3 601 685.7 601 642.8 601C600 601 557 601 514.2 601C471.3 601 428.7 601 385.8 601C343 601 300 601 257.2 601C214.3 601 171.7 601 128.8 601C86 601 43 601 21.5 601L0 601Z" fill="#2c3d86"></path><path d="M0 423L21.5 440.5C43 458 86 493 128.8 508.2C171.7 523.3 214.3 518.7 257.2 513.5C300 508.3 343 502.7 385.8 489C428.7 475.3 471.3 453.7 514.2 444.3C557 435 600 438 642.8 457.2C685.7 476.3 728.3 511.7 771.2 513.8C814 516 857 485 878.5 469.5L900 454L900 601L878.5 601C857 601 814 601 771.2 601C728.3 601 685.7 601 642.8 601C600 601 557 601 514.2 601C471.3 601 428.7 601 385.8 601C343 601 300 601 257.2 601C214.3 601 171.7 601 128.8 601C86 601 43 601 21.5 601L0 601Z" fill="#3449a7"></path><path d="M0 484L21.5 483C43 482 86 480 128.8 486C171.7 492 214.3 506 257.2 513C300 520 343 520 385.8 521.7C428.7 523.3 471.3 526.7 514.2 524C557 521.3 600 512.7 642.8 517.2C685.7 521.7 728.3 539.3 771.2 544.8C814 550.3 857 543.7 878.5 540.3L900 537L900 601L878.5 601C857 601 814 601 771.2 601C728.3 601 685.7 601 642.8 601C600 601 557 601 514.2 601C471.3 601 428.7 601 385.8 601C343 601 300 601 257.2 601C214.3 601 171.7 601 128.8 601C86 601 43 601 21.5 601L0 601Z" fill="#3d56c9"></path></svg>